<svg width="32" height="40" viewBox="0 0 32 40" fill="none" xmlns="http://www.w3.org/2000/svg">
  <!-- 핀 배경 -->
  <path d="M16 0C7.163 0 0 7.163 0 16C0 24.837 16 40 16 40S32 24.837 32 16C32 7.163 24.837 0 16 0Z" fill="#8B4513"/>
  
  <!-- 핀 테두리 -->
  <path d="M16 2C8.268 2 2 8.268 2 16C2 22.5 16 36 16 36S30 22.5 30 16C30 8.268 23.732 2 16 2Z" fill="#D2691E"/>
  
  <!-- 커피컵 -->
  <g transform="translate(8, 8)">
    <!-- 컵 몸체 -->
    <path d="M2 6H14V14C14 15.1046 13.1046 16 12 16H4C2.89543 16 2 15.1046 2 14V6Z" fill="#FFFFFF"/>
    
    <!-- 컵 손잡이 -->
    <path d="M14 8C15.1046 8 16 8.89543 16 10V12C16 13.1046 15.1046 14 14 14" stroke="#FFFFFF" stroke-width="1.5" fill="none"/>
    
    <!-- 커피 -->
    <ellipse cx="8" cy="7" rx="5" ry="1" fill="#8B4513"/>
    
    <!-- 증기 -->
    <path d="M6 4C6 4 6 2 7 2C8 2 8 4 8 4" stroke="#FFFFFF" stroke-width="1" fill="none" stroke-linecap="round"/>
    <path d="M8 4C8 4 8 2 9 2C10 2 10 4 10 4" stroke="#FFFFFF" stroke-width="1" fill="none" stroke-linecap="round"/>
    <path d="M10 4C10 4 10 2 11 2C12 2 12 4 12 4" stroke="#FFFFFF" stroke-width="1" fill="none" stroke-linecap="round"/>
  </g>
</svg>