<svg width="32" height="40" viewBox="0 0 32 40" fill="none" xmlns="http://www.w3.org/2000/svg">
  <!-- 핀 배경 -->
  <path d="M16 0C7.163 0 0 7.163 0 16C0 24.837 16 40 16 40S32 24.837 32 16C32 7.163 24.837 0 16 0Z" fill="#8B4513"/>
  <!-- 핀 테두리 -->
  <path d="M16 2C8.268 2 2 8.268 2 16C2 22.5 16 36 16 36S30 22.5 30 16C30 8.268 23.732 2 16 2Z" fill="#D2691E"/>
  
  <!-- utensils 아이콘, 중앙에 살짝 위로 -->
  <g transform="translate(6,8) scale(0.75)">
    <path d="M3 2v7c0 1.1.9 2 2 2h4a2 2 0 0 0 2-2V2" stroke="#fff" stroke-width="2" stroke-linecap="round" stroke-linejoin="round" fill="none"/>
    <path d="M7 2v20" stroke="#fff" stroke-width="2" stroke-linecap="round" stroke-linejoin="round" fill="none"/>
    <path d="M21 15V2a5 5 0 0 0-5 5v6c0 1.1.9 2 2 2h3Zm0 0v7" stroke="#fff" stroke-width="2" stroke-linecap="round" stroke-linejoin="round" fill="none"/>
  </g>
</svg>
